# xmcd CD database file
#
# Track frame offsets:
#	150
#	18026
#	37350
#	58979
#	85580
#	107244
#	126492
#	146835
#	168751
#	184825
#	204969
#	226807
#	252889
#	276000
#	298409
#	317218
#
# Disc length: 4431 seconds
#
# Revision: 0
# Processed by: cddbd v1.5.2PL0 Copyright (c) Steve Scherf et al.
# Submitted via: CDex 1.70beta2
#
DISCID=ef114d10
DTITLE=Various Artist - Salsa Vol. 1
DYEAR=1900
DGENRE=Salsa
TTITLE0=L'Apero (Salsa)
TTITLE1=Camaleon (Salsa)
TTITLE2=Amor Traicioero (Salsa)
TTITLE3=Decima Del Tiempo De Antes (Salsa)
TTITLE4=Recordando Todo (Salsa)
TTITLE5=Màs De Tu Piel (Salsa)
TTITLE6=Mi Duena (Salsa)
TTITLE7=Por Retenerte (Salsa)
TTITLE8=Amaria (Salsa)
TTITLE9=Cuanto Te Quiero (Salsa)
TTITLE10=Para Siempre (Salsa)
TTITLE11=Recuerdate (Salsa)
TTITLE12=Si Tu No Estás (Salsa)
TTITLE13=Oxigenio (Salsa)
TTITLE14=Romo Dao
TTITLE15=Me Duele (Salsa)
EXTD=
EXTT0=
EXTT1=
EXTT2=
EXTT3=
EXTT4=
EXTT5=
EXTT6=
EXTT7=
EXTT8=
EXTT9=
EXTT10=
EXTT11=
EXTT12=
EXTT13=
EXTT14=
EXTT15=
PLAYORDER=
